<?xml version="1.0" encoding="UTF-8"?>
<svg width="40px" height="40px" viewBox="0 0 40 40" version="1.1" xmlns="http://www.w3.org/2000/svg" xmlns:xlink="http://www.w3.org/1999/xlink">
    <!-- Generator: Sketch 51.1 (57501) - http://www.bohemiancoding.com/sketch -->
    <title>Twitter</title>
    <desc>Created with Sketch.</desc>
    <defs></defs>
    <g id="Wireframes" stroke="none" stroke-width="1" fill="none" fill-rule="evenodd">
        <g id="Front-Page" transform="translate(-1185.000000, -3829.000000)">
            <g id="Footer-#7" transform="translate(0.000000, 3806.000000)">
                <g id="Social-Button" transform="translate(1125.000000, 23.000000)">
                    <g id="Twitter" transform="translate(60.000000, 0.000000)">
                        <circle id="Placeholder" fill="#FFFFFF" cx="20" cy="20" r="20"></circle>
                        <path d="M18.0885,26 C22.99405,26 25.67725,21.7675115 25.67725,18.0975047 C25.67725,17.9770212 25.67725,17.8572147 25.66945,17.738085 C26.1914,17.3454985 26.64185,16.8581497 27,16.3004062 C26.5138,16.5251281 25.99705,16.6726865 25.4686,16.7376663 C26.025,16.3904303 26.44165,15.8448705 26.6412,15.201164 C26.1173,15.5247094 25.54465,15.7528157 24.9473,15.8753298 C23.9372,14.7571351 22.24785,14.7029853 21.1734,15.7548463 C20.48115,16.4330733 20.1867,17.444322 20.40185,18.4088664 C18.2575,18.2965054 16.2594,17.2419369 14.9048,15.5071107 C14.19695,16.7762481 14.559,18.3993902 15.73095,19.2143456 C15.3065,19.201485 14.89115,19.0823553 14.52,18.8671096 L14.52,18.902307 C14.52065,20.2242405 15.4157,21.3627413 16.6598,21.6246912 C16.2672,21.7363753 15.8551,21.7526203 15.456,21.6720724 C15.80505,22.8038045 16.8067,23.5788243 17.94745,23.6011612 C17.003,24.3741504 15.83625,24.7938118 14.63505,24.7924581 C14.42315,24.7917812 14.21125,24.7789206 14,24.7525226 C15.22005,25.567478 16.639,26 18.0885,25.9979694" fill="#6913FE"></path>
                    </g>
                </g>
            </g>
        </g>
    </g>
</svg>